<svg width="44" height="44" viewBox="0 0 44 44" fill="none" xmlns="http://www.w3.org/2000/svg">
<rect width="44" height="44" rx="4" fill="#1F4DCC"/>
<path fill-rule="evenodd" clip-rule="evenodd" d="M27.7071 17.7071C28.0976 17.3166 28.0976 16.6834 27.7071 16.2929C27.3166 15.9024 26.6834 15.9024 26.2929 16.2929L22 20.5858L17.7071 16.2929C17.3166 15.9024 16.6834 15.9024 16.2929 16.2929C15.9024 16.6834 15.9024 17.3166 16.2929 17.7071L20.5858 22L16.2929 26.2929C15.9024 26.6834 15.9024 27.3166 16.2929 27.7071C16.6834 28.0976 17.3166 28.0976 17.7071 27.7071L22 23.4142L26.2929 27.7071C26.6834 28.0976 27.3166 28.0976 27.7071 27.7071C28.0976 27.3166 28.0976 26.6834 27.7071 26.2929L23.4142 22L27.7071 17.7071Z" fill="white"/>
</svg>
