<svg width="24" height="24" viewBox="0 0 24 24" fill="none" xmlns="http://www.w3.org/2000/svg">
<path fill-rule="evenodd" clip-rule="evenodd" d="M9.6122 7.58101C9.6122 7.09509 10.0061 6.70117 10.492 6.70117H13.5086C13.9946 6.70117 14.3885 7.09509 14.3885 7.58101V8.20947H15.9254H16.5254C16.7336 8.20947 16.9024 8.37829 16.9024 8.58654C16.9024 8.7948 16.7336 8.96362 16.5254 8.96362H15.8704L15.3773 15.7258C15.3246 16.4485 14.723 17.0079 13.9984 17.0079H10.0026C9.27798 17.0079 8.67631 16.4485 8.62362 15.7258L8.13054 8.96362H7.47558C7.26733 8.96362 7.09851 8.7948 7.09851 8.58654C7.09851 8.37829 7.26733 8.20947 7.47558 8.20947H8.07555H9.6122V7.58101ZM10.492 7.45532C10.4226 7.45532 10.3663 7.51159 10.3663 7.58101V8.20947H13.6343V7.58101C13.6343 7.51159 13.578 7.45532 13.5086 7.45532H10.492ZM8.88669 8.96362L9.37577 15.671C9.39972 15.9994 9.67321 16.2537 10.0026 16.2537H13.9984C14.3277 16.2537 14.6012 15.9994 14.6252 15.671L15.1143 8.96362H8.88669ZM10.8695 10.5976C10.8695 10.3893 10.7006 10.2205 10.4924 10.2205C10.2841 10.2205 10.1153 10.3893 10.1153 10.5976L10.1153 14.6197C10.1153 14.828 10.2841 14.9968 10.4924 14.9968C10.7006 14.9968 10.8695 14.828 10.8695 14.6197L10.8695 10.5976ZM12.0006 10.2205C12.2088 10.2205 12.3776 10.3893 12.3776 10.5976V14.6197C12.3776 14.828 12.2088 14.9968 12.0006 14.9968C11.7923 14.9968 11.6235 14.828 11.6235 14.6197V10.5976C11.6235 10.3893 11.7923 10.2205 12.0006 10.2205ZM13.8856 10.5976C13.8856 10.3893 13.7167 10.2205 13.5085 10.2205C13.3002 10.2205 13.1314 10.3893 13.1314 10.5976V14.6197C13.1314 14.828 13.3002 14.9968 13.5085 14.9968C13.7167 14.9968 13.8856 14.828 13.8856 14.6197V10.5976Z" fill="#262626"/>
<path fill-rule="evenodd" clip-rule="evenodd" d="M9.51369 7.58091C9.51369 7.04084 9.9515 6.60303 10.4916 6.60303H13.5082C14.0482 6.60303 14.486 7.04084 14.486 7.58091V8.11132H16.5249C16.7873 8.11132 17 8.32404 17 8.58644C17 8.84884 16.7873 9.06155 16.5249 9.06155H15.9611L15.4746 15.7328C15.4182 16.5067 14.7739 17.1058 13.9979 17.1058H10.0021C9.22613 17.1058 8.5818 16.5067 8.52537 15.7328L8.03892 9.06155H7.47511C7.21272 9.06155 7 8.84884 7 8.58644C7 8.32404 7.21272 8.11132 7.47511 8.11132H9.51369V7.58091ZM8.13007 8.96351L8.62315 15.7257C8.67584 16.4484 9.27751 17.0078 10.0021 17.0078H13.9979C14.7225 17.0078 15.3242 16.4484 15.3769 15.7257L15.8699 8.96351H16.5249C16.7331 8.96351 16.902 8.79469 16.902 8.58644C16.902 8.37819 16.7331 8.20936 16.5249 8.20936H14.388V7.58091C14.388 7.09498 13.9941 6.70107 13.5082 6.70107H10.4916C10.0056 6.70107 9.61173 7.09498 9.61173 7.58091V8.20936H7.47511C7.26686 8.20936 7.09804 8.37819 7.09804 8.58644C7.09804 8.79469 7.26686 8.96351 7.47511 8.96351H8.13007ZM10.4916 7.55325C10.4763 7.55325 10.4639 7.56563 10.4639 7.58091V8.11132H13.5358V7.58091C13.5358 7.56563 13.5234 7.55325 13.5082 7.55325H10.4916ZM8.99167 9.06155L9.47308 15.6637C9.49329 15.941 9.72411 16.1556 10.0021 16.1556H13.9979C14.2759 16.1556 14.5067 15.941 14.5269 15.6637L15.0083 9.06155H8.99167ZM9.3753 15.6709C9.39925 15.9993 9.67273 16.2536 10.0021 16.2536H13.9979C14.3273 16.2536 14.6008 15.9993 14.6247 15.6709L15.1138 8.96351H8.88622L9.3753 15.6709ZM10.4919 10.1224C10.7543 10.1224 10.967 10.3351 10.967 10.5975V14.6196C10.967 14.882 10.7543 15.0947 10.4919 15.0947C10.2295 15.0947 10.0168 14.882 10.0168 14.6196L10.0168 10.5975C10.0168 10.3351 10.2295 10.1224 10.4919 10.1224ZM12.0001 10.1224C12.2625 10.1224 12.4752 10.3351 12.4752 10.5975V14.6196C12.4752 14.882 12.2625 15.0947 12.0001 15.0947C11.7377 15.0947 11.525 14.882 11.525 14.6196V10.5975C11.525 10.3351 11.7377 10.1224 12.0001 10.1224ZM13.508 10.1224C13.7704 10.1224 13.9831 10.3351 13.9831 10.5975V14.6196C13.9831 14.882 13.7704 15.0947 13.508 15.0947C13.2456 15.0947 13.0329 14.882 13.0329 14.6196V10.5975C13.0329 10.3351 13.2456 10.1224 13.508 10.1224ZM10.3659 7.58091C10.3659 7.51149 10.4222 7.45521 10.4916 7.45521H13.5082C13.5776 7.45521 13.6339 7.51149 13.6339 7.58091V8.20936H10.3659V7.58091ZM10.4919 10.2204C10.7002 10.2204 10.869 10.3892 10.869 10.5975L10.869 14.6196C10.869 14.8279 10.7002 14.9967 10.4919 14.9967C10.2837 14.9967 10.1149 14.8279 10.1149 14.6196L10.1149 10.5975C10.1149 10.3892 10.2837 10.2204 10.4919 10.2204ZM12.3772 10.5975C12.3772 10.3892 12.2083 10.2204 12.0001 10.2204C11.7918 10.2204 11.623 10.3892 11.623 10.5975V14.6196C11.623 14.8279 11.7918 14.9967 12.0001 14.9967C12.2083 14.9967 12.3772 14.8279 12.3772 14.6196V10.5975ZM13.508 10.2204C13.7163 10.2204 13.8851 10.3892 13.8851 10.5975V14.6196C13.8851 14.8279 13.7163 14.9967 13.508 14.9967C13.2998 14.9967 13.1309 14.8279 13.1309 14.6196V10.5975C13.1309 10.3892 13.2998 10.2204 13.508 10.2204Z" fill="#262626"/>
<path d="M12.08 2C12.08 2 12.04 2 12.02 2C8.3 2 4.98 4.07 3.3 7.25V6.26C3.3 5.9 3.01 5.61 2.65 5.61C2.29 5.61 2 5.9 2 6.26V9.08C2 9.63 2.41 10.06 2.94 10.14C2.99 10.14 3.04 10.17 3.09 10.17H5.23C5.59 10.17 5.88 9.88 5.88 9.52C5.88 9.16 5.59 8.87 5.23 8.87H3.99C5.23 5.55 8.41 3.3 12.02 3.3H12.07C16.64 3.33 20.45 7.06 20.58 11.62C20.64 13.96 19.78 16.16 18.16 17.84C16.54 19.52 14.35 20.43 12.02 20.43C10.47 20.43 8.95 20.01 7.63 19.22C7.06 18.88 6.54 18.48 6.07 18.02C5.81 17.77 5.4 17.78 5.15 18.03C4.9 18.29 4.91 18.7 5.16 18.95C5.7 19.48 6.31 19.94 6.96 20.33C8.49 21.24 10.24 21.73 12.02 21.73C14.71 21.73 17.22 20.67 19.09 18.74C20.96 16.81 21.95 14.27 21.88 11.58C21.73 6.33 17.34 2.03 12.08 2Z" fill="#262626"/>
</svg>
