<svg width="44" height="44" viewBox="0 0 44 44" fill="none" xmlns="http://www.w3.org/2000/svg">
<rect x="1" y="1" width="42" height="42" rx="3" stroke="#D7202C" stroke-width="2"/>
<path d="M13 15H31" stroke="#D7202C" stroke-width="1.5" stroke-linecap="round"/>
<path fill-rule="evenodd" clip-rule="evenodd" d="M14.1934 14.25H29.8067L28.7166 29.2C28.6118 30.6374 27.4151 31.75 25.9739 31.75H18.0262C16.585 31.75 15.3883 30.6374 15.2835 29.2L14.1934 14.25ZM15.8067 15.75L16.7795 29.0909C16.8271 29.7443 17.3711 30.25 18.0262 30.25H25.9739C26.629 30.25 27.1729 29.7443 27.2206 29.0909L28.1934 15.75H15.8067Z" fill="#D7202C"/>
<path fill-rule="evenodd" clip-rule="evenodd" d="M17.25 13C17.25 12.0335 18.0335 11.25 19 11.25H25C25.9665 11.25 26.75 12.0335 26.75 13V15.75H17.25V13ZM19 12.75C18.8619 12.75 18.75 12.8619 18.75 13V14.25H25.25V13C25.25 12.8619 25.1381 12.75 25 12.75H19Z" fill="#D7202C"/>
<path fill-rule="evenodd" clip-rule="evenodd" d="M19 18.25C19.4142 18.25 19.75 18.5858 19.75 19L19.75 27C19.75 27.4142 19.4142 27.75 19 27.75C18.5858 27.75 18.25 27.4142 18.25 27L18.25 19C18.25 18.5858 18.5858 18.25 19 18.25Z" fill="#D7202C"/>
<path fill-rule="evenodd" clip-rule="evenodd" d="M22 18.25C22.4142 18.25 22.75 18.5858 22.75 19L22.75 27C22.75 27.4142 22.4142 27.75 22 27.75C21.5858 27.75 21.25 27.4142 21.25 27L21.25 19C21.25 18.5858 21.5858 18.25 22 18.25Z" fill="#D7202C"/>
<path fill-rule="evenodd" clip-rule="evenodd" d="M25 18.25C25.4142 18.25 25.75 18.5858 25.75 19L25.75 27C25.75 27.4142 25.4142 27.75 25 27.75C24.5858 27.75 24.25 27.4142 24.25 27L24.25 19C24.25 18.5858 24.5858 18.25 25 18.25Z" fill="#D7202C"/>
</svg>
