<?xml version="1.0" encoding="UTF-8"?>
<!DOCTYPE svg PUBLIC "-//W3C//DTD SVG 1.1//EN" "http://www.w3.org/Graphics/SVG/1.1/DTD/svg11.dtd">
<svg version="1.1" xmlns="http://www.w3.org/2000/svg" xmlns:xlink="http://www.w3.org/1999/xlink" width="24" height="24"  xml:space="preserve" id="deleteIcon">
    <!-- Generated by PaintCode - http://www.paintcodeapp.com -->
    <path id="deleteIcon-bezier" stroke="none" fill="rgb(0, 0, 0)" d="M 20,6 C 20,6 20,7.28 20,8.87 20,11.5 20,14.98 20,14.98 20,17.62 20,20.13 20,20.13 20,21.71 18.83,23 17.39,23 L 6.61,23 C 5.17,23 4,21.71 4,20.13 4,20.13 4,17.62 4,14.98 4,14.98 4,11.5 4,8.87 4,7.28 4,6 4,6 L 20,6 20,6 Z M 20,6" />
    <rect id="deleteIcon-rectangle" stroke="none" fill="rgb(255, 255, 255)" x="10.5" y="8" width="3" height="14" rx="1.5" />
    <rect id="deleteIcon-rectangle2" stroke="none" fill="rgb(255, 255, 255)" x="5" y="8" width="3" height="14" rx="1.5" />
    <rect id="deleteIcon-rectangle3" stroke="none" fill="rgb(255, 255, 255)" x="16" y="8" width="3" height="14" rx="1.5" />
    <path id="deleteIcon-bezier4" stroke="none" fill="rgb(0, 0, 0)" d="M 15.56,2.19 C 15.56,2.19 15.56,2.26 15.56,2.33 L 17.58,2.33 C 18.92,2.33 20,3.39 20,4.7 20,4.7 20,4.86 20,5 L 4,5 C 4,4.86 4,4.7 4,4.7 4,3.39 5.08,2.33 6.42,2.33 L 15.56,2.33 8.89,2.33 C 8.89,2.26 8.89,2.19 8.89,2.19 8.89,1.99 8.93,1.8 9,1.64 9.17,1.26 9.51,1 9.9,1 L 14.55,1 C 15.11,1 15.56,1.53 15.56,2.19 Z M 15.56,2.19" />
</svg>
