<svg width="24" height="24" viewBox="0 0 24 24" fill="none" xmlns="http://www.w3.org/2000/svg">
<g clip-path="url(#clip0_330_6759)">
<path fill-rule="evenodd" clip-rule="evenodd" d="M4.29167 4.57153C3.71637 4.57153 3.25 5.0379 3.25 5.6132V18.9465C3.25 19.5218 3.71637 19.9882 4.29167 19.9882H17.625C18.2003 19.9882 18.6667 19.5218 18.6667 18.9465V16.4465C18.6667 16.1014 18.9465 15.8215 19.2917 15.8215C19.6368 15.8215 19.9167 16.1014 19.9167 16.4465V18.9465C19.9167 20.2122 18.8907 21.2382 17.625 21.2382H4.29167C3.02601 21.2382 2 20.2122 2 18.9465V5.6132C2 4.34755 3.02601 3.32153 4.29167 3.32153H6.79167C7.13684 3.32153 7.41667 3.60136 7.41667 3.94653C7.41667 4.29171 7.13684 4.57153 6.79167 4.57153H4.29167Z" fill="#262626"/>
<path fill-rule="evenodd" clip-rule="evenodd" d="M18.2484 3.31102C18.167 3.22966 18.0351 3.22966 17.9537 3.31102L17.0802 4.18458L19.0534 6.15784L19.927 5.28428C20.0083 5.20292 20.0083 5.07101 19.927 4.98965L18.2484 3.31102ZM18.1695 7.04173L16.1963 5.06847L9.46111 11.8036L11.4344 13.7769L18.1695 7.04173ZM10.2119 14.3222L8.91584 13.0261L8.48383 14.7542L10.2119 14.3222ZM17.0698 2.42714C17.6394 1.85762 18.5627 1.85762 19.1322 2.42714L20.8109 4.10577C21.3804 4.67528 21.3804 5.59865 20.8109 6.16816L11.7539 15.2251L8.04592 16.1521C7.46612 16.2971 6.94093 15.7719 7.08588 15.1921L8.01288 11.4841L17.0698 2.42714Z" fill="#262626"/>
</g>
<defs>
<clipPath id="clip0_330_6759">
<rect width="20" height="20" fill="white" transform="translate(2 2)"/>
</clipPath>
</defs>
</svg>
