<svg width="24" height="24" viewBox="0 0 24 24" fill="none" xmlns="http://www.w3.org/2000/svg">
<path fill-rule="evenodd" clip-rule="evenodd" d="M1.99995 1.20001C2.44178 1.20001 2.79995 1.55818 2.79995 2.00001V21.2H22C22.4418 21.2 22.7999 21.5582 22.7999 22C22.7999 22.4418 22.4418 22.8 22 22.8H2.19995C1.64766 22.8 1.19995 22.3523 1.19995 21.8V2.00001C1.19995 1.55818 1.55812 1.20001 1.99995 1.20001Z" fill="#262626"/>
<path fill-rule="evenodd" clip-rule="evenodd" d="M22.0825 7.45172C22.3853 7.77346 22.37 8.27976 22.0483 8.58257L13.6993 16.4404C13.2867 16.8287 12.6344 16.7971 12.2613 16.3707L9.42883 13.1336L5.53145 16.5979C5.20122 16.8915 4.69557 16.8617 4.40203 16.5315C4.1085 16.2013 4.13824 15.6956 4.46847 15.4021L8.81781 11.536C9.23288 11.1671 9.86906 11.207 10.2348 11.6249L13.0558 14.8489L20.9517 7.41745C21.2734 7.11464 21.7797 7.12998 22.0825 7.45172Z" fill="#1F4DCC"/>
</svg>
