<svg width="44" height="44" viewBox="0 0 44 44" fill="none" xmlns="http://www.w3.org/2000/svg">
<circle cx="22" cy="22" r="20" fill="#3C98C7"/>
<path fill-rule="evenodd" clip-rule="evenodd" d="M11.7722 13.2506C11.7694 13.2527 11.7654 13.2557 11.7602 13.2596C11.7469 13.2698 11.726 13.2861 11.6985 13.3083C11.6433 13.3528 11.5614 13.4213 11.4601 13.5134C11.2571 13.6977 10.977 13.9754 10.6761 14.3431C10.0735 15.0794 9.39497 16.1672 9.07637 17.582C8.44781 20.3731 9.18567 24.6217 15.202 30.1616C17.2323 32.027 19.5538 33.5778 22.0136 34.8426C24.4732 33.5778 26.7946 32.0272 28.8248 30.1619C34.8237 24.6224 35.5536 20.374 34.921 17.5826C34.6003 16.1676 33.9207 15.0797 33.3175 14.3432C33.0163 13.9755 32.736 13.6978 32.533 13.5135C32.4316 13.4214 32.3497 13.3529 32.2945 13.3083C32.2669 13.2861 32.246 13.2698 32.2327 13.2596C32.2288 13.2567 32.2256 13.2542 32.223 13.2523C32.2225 13.2519 32.2219 13.2515 32.2214 13.2511C29.5925 11.4869 27.4033 11.7134 25.7649 12.4868C24.0904 13.2772 22.9558 14.6595 22.5473 15.2311L22.5443 15.2353L22.5412 15.2394C22.4164 15.4057 22.2221 15.5202 21.9965 15.5202C21.7708 15.5202 21.5765 15.4057 21.4518 15.2394L21.4487 15.2353L21.4456 15.2311C21.0363 14.6583 19.9015 13.2679 18.2272 12.4736C16.5895 11.6966 14.4012 11.4698 11.7722 13.2506ZM32.4787 12.8868C32.7409 12.5262 32.7412 12.5265 32.7416 12.5267L32.7424 12.5273L32.7447 12.529L32.7515 12.5341C32.7572 12.5382 32.7648 12.544 32.7744 12.5514C32.7936 12.5661 32.8206 12.5871 32.8544 12.6144C32.9221 12.6689 33.0172 12.7487 33.1324 12.8533C33.3626 13.0623 33.6742 13.3715 34.0073 13.7782C34.6727 14.5905 35.4316 15.8012 35.7906 17.3855C36.5174 20.5927 35.5715 25.1456 29.4296 30.8171L29.4288 30.8179C27.2738 32.798 24.8104 34.4267 22.215 35.7409L22.0136 35.8429L21.8122 35.7409C19.2167 34.4267 16.7534 32.798 14.5983 30.8179L14.598 30.8176C8.43916 25.1464 7.48412 20.5936 8.20646 17.3861C8.5633 15.8016 9.32118 14.5908 9.98607 13.7783C10.319 13.3716 10.6304 13.0623 10.8606 12.8533C10.9757 12.7487 11.0708 12.669 11.1385 12.6144C11.1723 12.5871 11.1993 12.5661 11.2185 12.5514C11.2281 12.544 11.2358 12.5382 11.2414 12.5341L11.2483 12.529L11.2505 12.5273L11.2514 12.5267C11.2517 12.5265 11.252 12.5262 11.5142 12.8868L11.252 12.5262L11.2578 12.522L11.2638 12.5179C14.1719 10.5445 16.7004 10.7623 18.6094 11.668C20.2785 12.4598 21.4463 13.7617 21.9966 14.4775C22.5475 13.7625 23.7154 12.4682 25.3843 11.6804C27.2924 10.7798 29.8198 10.5616 32.7275 12.5169L32.7343 12.5214L32.7409 12.5262L32.4787 12.8868Z" fill="white" stroke="white" stroke-width="0.5" stroke-miterlimit="10"/>
<path fill-rule="evenodd" clip-rule="evenodd" d="M18.8924 19.4538L17.4751 22.8092C17.3774 23.0403 17.1509 23.1905 16.9001 23.1905H14.1531C13.9069 23.1905 13.7073 22.9908 13.7073 22.7446C13.7073 22.4984 13.9069 22.2988 14.1531 22.2988H16.7227L18.3391 18.4723C18.5607 17.9475 19.3117 17.9695 19.5023 18.5063L21.7452 24.8244L23.6229 20.2694C23.8253 19.7786 24.509 19.7484 24.7539 20.2194L26.4153 23.4159H30.2036C30.4498 23.4159 30.6494 23.6156 30.6494 23.8618C30.6494 24.108 30.4498 24.3076 30.2036 24.3076H25.8738L24.228 21.1412L22.3036 25.8094C22.0855 26.3385 21.3297 26.3196 21.1383 25.7803L18.8924 19.4538Z" fill="white" stroke="white" stroke-width="0.5" stroke-miterlimit="10" stroke-linecap="round"/>
</svg>
