<svg width="44" height="44" viewBox="0 0 44 44" fill="none" xmlns="http://www.w3.org/2000/svg">
<circle cx="22" cy="22" r="20" fill="#3C98C7"/>
<path fill-rule="evenodd" clip-rule="evenodd" d="M13.5132 7.99999C13.7642 7.99999 13.9677 8.20344 13.9677 8.4544V10.0788C13.9677 10.3298 13.7642 10.5332 13.5132 10.5332C13.2623 10.5332 13.0588 10.3298 13.0588 10.0788V8.4544C13.0588 8.20344 13.2623 7.99999 13.5132 7.99999Z" fill="white"/>
<path fill-rule="evenodd" clip-rule="evenodd" d="M12.2461 8.4544C12.2461 8.20344 12.4495 7.99999 12.7005 7.99999H14.3249C14.5759 7.99999 14.7793 8.20344 14.7793 8.4544C14.7793 8.70537 14.5759 8.90881 14.3249 8.90881H12.7005C12.4495 8.90881 12.2461 8.70537 12.2461 8.4544Z" fill="white"/>
<path fill-rule="evenodd" clip-rule="evenodd" d="M16.8984 9.88711C17.0759 10.0646 17.0759 10.3523 16.8984 10.5297L16.2567 11.1715C16.0792 11.3489 15.7915 11.3489 15.6141 11.1715C15.4366 10.994 15.4366 10.7063 15.6141 10.5288L16.2558 9.88711C16.4332 9.70965 16.7209 9.70965 16.8984 9.88711Z" fill="white"/>
<path fill-rule="evenodd" clip-rule="evenodd" d="M13.5133 10.7484C12.0749 10.7484 10.9088 11.9145 10.9088 13.3528C10.9088 14.7912 12.0749 15.9573 13.5133 15.9573C14.9517 15.9573 16.1177 14.7912 16.1177 13.3528C16.1177 11.9145 14.9517 10.7484 13.5133 10.7484ZM10 13.3528C10 11.4125 11.5729 9.83958 13.5133 9.83958C15.4536 9.83958 17.0265 11.4125 17.0265 13.3528C17.0265 15.2932 15.4536 16.8661 13.5133 16.8661C11.5729 16.8661 10 15.2932 10 13.3528Z" fill="white"/>
<path fill-rule="evenodd" clip-rule="evenodd" d="M15.0348 11.8297C15.2123 12.0071 15.2125 12.2948 15.0351 12.4723L13.8347 13.674C13.6574 13.8515 13.3697 13.8517 13.1921 13.6743C13.0145 13.497 13.0144 13.2092 13.1918 13.0317L14.3922 11.83C14.5695 11.6525 14.8572 11.6523 15.0348 11.8297Z" fill="white"/>
<path fill-rule="evenodd" clip-rule="evenodd" d="M19.4391 29.7217C19.4391 29.4707 19.6425 29.2673 19.8935 29.2673H20.7957C21.0466 29.2673 21.2501 29.4707 21.2501 29.7217C21.2501 29.9726 21.0466 30.1761 20.7957 30.1761H19.8935C19.6425 30.1761 19.4391 29.9726 19.4391 29.7217Z" fill="white"/>
<path fill-rule="evenodd" clip-rule="evenodd" d="M17.9098 13.0823C17.9098 12.8313 18.1132 12.6279 18.3642 12.6279H25.9729C28.5909 12.6279 30.713 14.7516 30.713 17.3692V28.4533C30.713 31.0723 28.5908 33.1947 25.9729 33.1947H23.6739V30.1761H19.839V33.1947H17.5413C14.9236 33.1947 12.7999 31.0724 12.7999 28.4533V18.3661C12.7999 18.1152 13.0034 17.9117 13.2543 17.9117C13.5053 17.9117 13.7087 18.1152 13.7087 18.3661V28.4533C13.7087 30.5703 15.4253 32.2858 17.5413 32.2858H18.9302V29.2673H24.5827V32.2858H25.9729C28.0887 32.2858 29.8042 30.5705 29.8042 28.4533V17.3692C29.8042 15.2532 28.0886 13.5367 25.9729 13.5367H18.3642C18.1132 13.5367 17.9098 13.3333 17.9098 13.0823Z" fill="white"/>
<path fill-rule="evenodd" clip-rule="evenodd" d="M18.2385 16.895C17.6173 16.895 17.1138 17.3986 17.1138 18.0198V24.3791C17.1138 25.0002 17.6173 25.5038 18.2385 25.5038H25.276C25.8972 25.5038 26.4007 25.0002 26.4007 24.3791V18.0198C26.4007 17.3986 25.8972 16.895 25.276 16.895H18.2385ZM16.205 18.0198C16.205 16.8967 17.1154 15.9862 18.2385 15.9862H25.276C26.3991 15.9862 27.3095 16.8967 27.3095 18.0198V24.3791C27.3095 25.5021 26.3991 26.4126 25.276 26.4126H18.2385C17.1154 26.4126 16.205 25.5021 16.205 24.3791V18.0198Z" fill="white"/>
<path d="M22.5089 23.9726C24.887 23.0013 22.2597 18.961 21.8181 18.3129C21.7891 18.2702 21.7262 18.2702 21.696 18.3129C21.2544 18.9622 18.6271 23.0013 21.0052 23.9726C21.4846 24.1689 22.0282 24.1689 22.5076 23.9726H22.5089Z" fill="#18648B"/>
<path fill-rule="evenodd" clip-rule="evenodd" d="M21.3248 18.0509C21.5319 17.7575 21.9807 17.7436 22.1939 18.0574C22.4195 18.3885 23.2156 19.6018 23.6509 20.8744C23.8672 21.5069 24.0132 22.2062 23.9154 22.839C23.8121 23.5079 23.4359 24.0849 22.6807 24.3933L22.5981 24.427H22.5922C22.0247 24.634 21.3941 24.6228 20.8334 24.3933C20.0784 24.0849 19.7021 23.508 19.5988 22.8392C19.5009 22.2064 19.647 21.5073 19.8633 20.8749C20.2988 19.6019 21.0953 18.3881 21.3203 18.0574L21.3226 18.0541L21.3248 18.0509ZM21.4426 18.5689L21.4417 18.5675L21.4417 18.5675M21.7572 19.0566C22.0731 19.5705 22.5159 20.3643 22.791 21.1686C22.9894 21.7486 23.0819 22.2821 23.0173 22.7002C22.9599 23.0712 22.7819 23.3575 22.3745 23.5361L22.3355 23.5521C21.9664 23.7032 21.5465 23.7032 21.1775 23.5521L21.1771 23.552C20.7431 23.3747 20.556 23.0824 20.4969 22.7004C20.4323 22.2824 20.5248 21.749 20.7232 21.1691C20.9984 20.3647 21.4413 19.5708 21.7572 19.0566Z" fill="white"/>
<path fill-rule="evenodd" clip-rule="evenodd" d="M18.0624 29.7217C18.0624 29.4707 18.2658 29.2673 18.5168 29.2673H19.4177C19.6687 29.2673 19.8721 29.4707 19.8721 29.7217C19.8721 29.9726 19.6687 30.1761 19.4177 30.1761H18.5168C18.2658 30.1761 18.0624 29.9726 18.0624 29.7217ZM23.6739 29.7217C23.6739 29.4707 23.8774 29.2673 24.1284 29.2673H25.0293C25.2802 29.2673 25.4837 29.4707 25.4837 29.7217C25.4837 29.9726 25.2802 30.1761 25.0293 30.1761H24.1284C23.8774 30.1761 23.6739 29.9726 23.6739 29.7217Z" fill="white"/>
<path fill-rule="evenodd" clip-rule="evenodd" d="M18.9315 29.2673H24.5853V37.1719C24.5853 37.6292 24.2145 38 23.7572 38H19.7596C19.3023 38 18.9315 37.6292 18.9315 37.1719V29.2673ZM19.8403 30.1761V37.0912H23.6765V30.1761H19.8403ZM21.7578 34.7449C21.5251 34.7449 21.3377 34.9332 21.3377 35.1637C21.3377 35.3942 21.5251 35.5825 21.7578 35.5825C21.9891 35.5825 22.1766 35.3955 22.1766 35.1637C22.1766 34.9315 21.99 34.7449 21.7578 34.7449ZM20.4289 35.1637C20.4289 34.4304 21.0241 33.836 21.7578 33.836C22.4919 33.836 23.0854 34.4295 23.0854 35.1637C23.0854 35.8983 22.4902 36.4913 21.7578 36.4913C21.0241 36.4913 20.4289 35.897 20.4289 35.1637Z" fill="white"/>
<path fill-rule="evenodd" clip-rule="evenodd" d="M21.759 34.7449C21.5263 34.7449 21.3389 34.9332 21.3389 35.1637C21.3389 35.3938 21.5272 35.5825 21.759 35.5825C21.9899 35.5825 22.1778 35.3946 22.1778 35.1637C22.1778 34.9315 21.9912 34.7449 21.759 34.7449ZM20.4301 35.1637C20.4301 34.4304 21.0252 33.836 21.759 33.836C22.4931 33.836 23.0866 34.4295 23.0866 35.1637C23.0866 35.8966 22.4918 36.4913 21.759 36.4913C21.0269 36.4913 20.4301 35.8974 20.4301 35.1637Z" fill="white"/>
<path fill-rule="evenodd" clip-rule="evenodd" d="M21.759 34.7449C21.5263 34.7449 21.3389 34.9332 21.3389 35.1637C21.3389 35.3938 21.5272 35.5825 21.759 35.5825C21.9899 35.5825 22.1778 35.3946 22.1778 35.1637C22.1778 34.9315 21.9912 34.7449 21.759 34.7449ZM20.4301 35.1637C20.4301 34.4304 21.0252 33.836 21.759 33.836C22.4931 33.836 23.0866 34.4295 23.0866 35.1637C23.0866 35.8966 22.4918 36.4913 21.759 36.4913C21.0269 36.4913 20.4301 35.8974 20.4301 35.1637Z" fill="white"/>
</svg>
