<svg width="619" height="76" viewBox="0 0 619 76" fill="none" xmlns="http://www.w3.org/2000/svg">
<rect width="619" height="76" fill="white"/>
<circle cx="22.1181" cy="22.1181" r="15.1181" fill="#262626"/>
<path d="M8.688 66.848C8.688 67.5093 8.50133 68.0853 8.128 68.576C7.76533 69.0667 7.28 69.4507 6.672 69.728C6.07467 69.9947 5.41867 70.128 4.704 70.128C3.94667 70.128 3.27467 69.9787 2.688 69.68C2.10133 69.3707 1.63733 68.9653 1.296 68.464C0.965333 67.9627 0.8 67.4027 0.8 66.784C0.8 66.304 0.912 65.872 1.136 65.488C1.37067 65.0933 1.65867 64.7627 2 64.496C2.352 64.2293 2.70933 64.0373 3.072 63.92C2.74133 63.7813 2.432 63.6 2.144 63.376C1.856 63.1413 1.62667 62.8693 1.456 62.56C1.28533 62.2507 1.2 61.9093 1.2 61.536C1.2 61.0667 1.30133 60.656 1.504 60.304C1.71733 59.9413 1.99467 59.6373 2.336 59.392C2.67733 59.136 3.056 58.9493 3.472 58.832C3.89867 58.704 4.32533 58.64 4.752 58.64C5.168 58.64 5.584 58.704 6 58.832C6.42667 58.9493 6.81067 59.1307 7.152 59.376C7.504 59.6213 7.78133 59.9253 7.984 60.288C8.19733 60.64 8.304 61.0507 8.304 61.52C8.304 61.8933 8.21333 62.24 8.032 62.56C7.86133 62.8693 7.632 63.1413 7.344 63.376C7.056 63.6 6.74133 63.7813 6.4 63.92C6.816 64.0587 7.19467 64.272 7.536 64.56C7.888 64.8373 8.16533 65.168 8.368 65.552C8.58133 65.936 8.688 66.368 8.688 66.848ZM7.584 66.768C7.584 66.384 7.49867 66.048 7.328 65.76C7.168 65.4613 6.944 65.2107 6.656 65.008C6.37867 64.8053 6.06933 64.6507 5.728 64.544C5.39733 64.4373 5.06133 64.384 4.72 64.384C4.26133 64.384 3.81333 64.4853 3.376 64.688C2.94933 64.88 2.59733 65.1573 2.32 65.52C2.05333 65.872 1.92 66.2933 1.92 66.784C1.92 67.1573 2 67.488 2.16 67.776C2.33067 68.064 2.55467 68.3147 2.832 68.528C3.10933 68.7307 3.41333 68.8853 3.744 68.992C4.08533 69.0987 4.42667 69.152 4.768 69.152C5.22667 69.152 5.66933 69.056 6.096 68.864C6.53333 68.6613 6.89067 68.3787 7.168 68.016C7.44533 67.6533 7.584 67.2373 7.584 66.768ZM2.288 61.584C2.288 61.9893 2.41067 62.3413 2.656 62.64C2.912 62.928 3.232 63.1467 3.616 63.296C4 63.4453 4.37333 63.52 4.736 63.52C5.12 63.52 5.49867 63.4453 5.872 63.296C6.256 63.136 6.57067 62.912 6.816 62.624C7.072 62.3253 7.2 61.968 7.2 61.552C7.2 61.1467 7.08267 60.8 6.848 60.512C6.61333 60.224 6.304 60.0053 5.92 59.856C5.54667 59.7067 5.14667 59.632 4.72 59.632C4.31467 59.632 3.92 59.712 3.536 59.872C3.16267 60.0213 2.85867 60.2453 2.624 60.544C2.4 60.832 2.288 61.1787 2.288 61.584ZM27.1625 70H26.0745V65.344C26.0745 64.3733 25.9198 63.6587 25.6105 63.2C25.3012 62.7413 24.8425 62.512 24.2345 62.512C23.6052 62.512 23.0398 62.736 22.5385 63.184C22.0478 63.632 21.7012 64.208 21.4985 64.912V70H20.4105V65.344C20.4105 64.3627 20.2612 63.648 19.9625 63.2C19.6638 62.7413 19.2052 62.512 18.5865 62.512C17.9678 62.512 17.4078 62.7307 16.9065 63.168C16.4052 63.6053 16.0532 64.1813 15.8505 64.896V70H14.7625V61.664H15.7545V63.552C16.1065 62.9013 16.5545 62.4 17.0985 62.048C17.6532 61.696 18.2665 61.52 18.9385 61.52C19.6318 61.52 20.1918 61.7173 20.6185 62.112C21.0452 62.5067 21.3065 63.024 21.4025 63.664C21.7865 62.96 22.2452 62.4267 22.7785 62.064C23.3225 61.7013 23.9358 61.52 24.6185 61.52C25.0878 61.52 25.4825 61.6053 25.8025 61.776C26.1332 61.9467 26.3945 62.192 26.5865 62.512C26.7892 62.8213 26.9332 63.2 27.0185 63.648C27.1145 64.0853 27.1625 64.576 27.1625 65.12V70ZM41.8656 70H40.7776V65.344C40.7776 64.3733 40.623 63.6587 40.3136 63.2C40.0043 62.7413 39.5456 62.512 38.9376 62.512C38.3083 62.512 37.743 62.736 37.2416 63.184C36.751 63.632 36.4043 64.208 36.2016 64.912V70H35.1136V65.344C35.1136 64.3627 34.9643 63.648 34.6656 63.2C34.367 62.7413 33.9083 62.512 33.2896 62.512C32.671 62.512 32.111 62.7307 31.6096 63.168C31.1083 63.6053 30.7563 64.1813 30.5536 64.896V70H29.4656V61.664H30.4576V63.552C30.8096 62.9013 31.2576 62.4 31.8016 62.048C32.3563 61.696 32.9696 61.52 33.6416 61.52C34.335 61.52 34.895 61.7173 35.3216 62.112C35.7483 62.5067 36.0096 63.024 36.1056 63.664C36.4896 62.96 36.9483 62.4267 37.4816 62.064C38.0256 61.7013 38.639 61.52 39.3216 61.52C39.791 61.52 40.1856 61.6053 40.5056 61.776C40.8363 61.9467 41.0976 62.192 41.2896 62.512C41.4923 62.8213 41.6363 63.2 41.7216 63.648C41.8176 64.0853 41.8656 64.576 41.8656 65.12V70Z" fill="black"/>
<circle cx="104.228" cy="22.2283" r="13.2283" fill="#262626"/>
<path d="M88.672 61.68H82.544V60.672H90.4L84.656 72.032H83.408L88.672 61.68ZM108.241 70H107.153V65.344C107.153 64.3733 106.998 63.6587 106.689 63.2C106.379 62.7413 105.921 62.512 105.313 62.512C104.683 62.512 104.118 62.736 103.617 63.184C103.126 63.632 102.779 64.208 102.577 64.912V70H101.489V65.344C101.489 64.3627 101.339 63.648 101.041 63.2C100.742 62.7413 100.283 62.512 99.6646 62.512C99.046 62.512 98.486 62.7307 97.9846 63.168C97.4833 63.6053 97.1313 64.1813 96.9286 64.896V70H95.8406V61.664H96.8326V63.552C97.1846 62.9013 97.6326 62.4 98.1766 62.048C98.7313 61.696 99.3446 61.52 100.017 61.52C100.71 61.52 101.27 61.7173 101.697 62.112C102.123 62.5067 102.385 63.024 102.481 63.664C102.865 62.96 103.323 62.4267 103.857 62.064C104.401 61.7013 105.014 61.52 105.697 61.52C106.166 61.52 106.561 61.6053 106.881 61.776C107.211 61.9467 107.473 62.192 107.665 62.512C107.867 62.8213 108.011 63.2 108.097 63.648C108.193 64.0853 108.241 64.576 108.241 65.12V70ZM122.944 70H121.856V65.344C121.856 64.3733 121.701 63.6587 121.392 63.2C121.082 62.7413 120.624 62.512 120.016 62.512C119.386 62.512 118.821 62.736 118.32 63.184C117.829 63.632 117.482 64.208 117.28 64.912V70H116.192V65.344C116.192 64.3627 116.042 63.648 115.744 63.2C115.445 62.7413 114.986 62.512 114.368 62.512C113.749 62.512 113.189 62.7307 112.688 63.168C112.186 63.6053 111.834 64.1813 111.632 64.896V70H110.544V61.664H111.536V63.552C111.888 62.9013 112.336 62.4 112.88 62.048C113.434 61.696 114.048 61.52 114.72 61.52C115.413 61.52 115.973 61.7173 116.4 62.112C116.826 62.5067 117.088 63.024 117.184 63.664C117.568 62.96 118.026 62.4267 118.56 62.064C119.104 61.7013 119.717 61.52 120.4 61.52C120.869 61.52 121.264 61.6053 121.584 61.776C121.914 61.9467 122.176 62.192 122.368 62.512C122.57 62.8213 122.714 63.2 122.8 63.648C122.896 64.0853 122.944 64.576 122.944 65.12V70Z" fill="black"/>
<circle cx="187.339" cy="22.3386" r="11.3386" fill="#262626"/>
<path d="M172.944 66.256C172.944 66.9707 172.763 67.6267 172.4 68.224C172.048 68.8107 171.568 69.28 170.96 69.632C170.352 69.984 169.669 70.16 168.912 70.16C168.123 70.16 167.419 69.9733 166.8 69.6C166.192 69.216 165.712 68.6667 165.36 67.952C165.008 67.2373 164.832 66.3893 164.832 65.408C164.832 63.8613 165.008 62.5867 165.36 61.584C165.712 60.5707 166.203 59.8133 166.832 59.312C167.461 58.8107 168.192 58.56 169.024 58.56C169.781 58.56 170.459 58.752 171.056 59.136C171.653 59.5093 172.107 60.0213 172.416 60.672L171.712 61.312C171.488 60.768 171.131 60.336 170.64 60.016C170.16 59.6853 169.621 59.52 169.024 59.52C168.395 59.52 167.845 59.7173 167.376 60.112C166.907 60.5067 166.539 61.072 166.272 61.808C166.016 62.544 165.888 63.4347 165.888 64.48C166.048 64.064 166.283 63.7013 166.592 63.392C166.901 63.0827 167.264 62.8427 167.68 62.672C168.107 62.5013 168.56 62.416 169.04 62.416C169.765 62.416 170.421 62.5867 171.008 62.928C171.605 63.2693 172.075 63.7333 172.416 64.32C172.768 64.896 172.944 65.5413 172.944 66.256ZM168.944 69.2C169.477 69.2 169.968 69.0667 170.416 68.8C170.864 68.5333 171.221 68.176 171.488 67.728C171.765 67.28 171.904 66.7893 171.904 66.256C171.904 65.7227 171.765 65.232 171.488 64.784C171.221 64.336 170.864 63.9787 170.416 63.712C169.968 63.4453 169.477 63.312 168.944 63.312C168.4 63.312 167.899 63.4453 167.44 63.712C166.992 63.9787 166.635 64.336 166.368 64.784C166.101 65.2213 165.968 65.712 165.968 66.256C165.968 66.7893 166.101 67.28 166.368 67.728C166.645 68.176 167.008 68.5333 167.456 68.8C167.904 69.0667 168.4 69.2 168.944 69.2ZM191.319 70H190.231V65.344C190.231 64.3733 190.076 63.6587 189.767 63.2C189.457 62.7413 188.999 62.512 188.391 62.512C187.761 62.512 187.196 62.736 186.695 63.184C186.204 63.632 185.857 64.208 185.655 64.912V70H184.567V65.344C184.567 64.3627 184.417 63.648 184.119 63.2C183.82 62.7413 183.361 62.512 182.743 62.512C182.124 62.512 181.564 62.7307 181.063 63.168C180.561 63.6053 180.209 64.1813 180.007 64.896V70H178.919V61.664H179.911V63.552C180.263 62.9013 180.711 62.4 181.255 62.048C181.809 61.696 182.423 61.52 183.095 61.52C183.788 61.52 184.348 61.7173 184.775 62.112C185.201 62.5067 185.463 63.024 185.559 63.664C185.943 62.96 186.401 62.4267 186.935 62.064C187.479 61.7013 188.092 61.52 188.775 61.52C189.244 61.52 189.639 61.6053 189.959 61.776C190.289 61.9467 190.551 62.192 190.743 62.512C190.945 62.8213 191.089 63.2 191.175 63.648C191.271 64.0853 191.319 64.576 191.319 65.12V70ZM206.022 70H204.934V65.344C204.934 64.3733 204.779 63.6587 204.47 63.2C204.161 62.7413 203.702 62.512 203.094 62.512C202.465 62.512 201.899 62.736 201.398 63.184C200.907 63.632 200.561 64.208 200.358 64.912V70H199.27V65.344C199.27 64.3627 199.121 63.648 198.822 63.2C198.523 62.7413 198.065 62.512 197.446 62.512C196.827 62.512 196.267 62.7307 195.766 63.168C195.265 63.6053 194.913 64.1813 194.71 64.896V70H193.622V61.664H194.614V63.552C194.966 62.9013 195.414 62.4 195.958 62.048C196.513 61.696 197.126 61.52 197.798 61.52C198.491 61.52 199.051 61.7173 199.478 62.112C199.905 62.5067 200.166 63.024 200.262 63.664C200.646 62.96 201.105 62.4267 201.638 62.064C202.182 61.7013 202.795 61.52 203.478 61.52C203.947 61.52 204.342 61.6053 204.662 61.776C204.993 61.9467 205.254 62.192 205.446 62.512C205.649 62.8213 205.793 63.2 205.878 63.648C205.974 64.0853 206.022 64.576 206.022 65.12V70Z" fill="black"/>
<circle cx="269.449" cy="22.4488" r="9.44882" fill="#262626"/>
<path d="M251.192 72.384C250.392 72.384 249.667 72.1813 249.016 71.776C248.365 71.3813 247.88 70.8587 247.56 70.208L248.28 69.664C248.579 70.1867 248.984 70.608 249.496 70.928C250.019 71.248 250.589 71.408 251.208 71.408C251.741 71.408 252.216 71.2907 252.632 71.056C253.059 70.8213 253.395 70.496 253.64 70.08C253.896 69.664 254.024 69.184 254.024 68.64C254.024 68.1173 253.901 67.6587 253.656 67.264C253.421 66.8587 253.096 66.544 252.68 66.32C252.275 66.096 251.816 65.984 251.304 65.984C250.813 65.984 250.344 66.096 249.896 66.32C249.448 66.5333 249.085 66.848 248.808 67.264H247.8L249.064 60.864H254.552V61.872H249.88L249.096 65.952C249.373 65.6533 249.715 65.424 250.12 65.264C250.525 65.0933 250.963 65.008 251.432 65.008C252.125 65.008 252.749 65.1627 253.304 65.472C253.869 65.7813 254.317 66.208 254.648 66.752C254.979 67.296 255.144 67.92 255.144 68.624C255.144 69.3707 254.963 70.0267 254.6 70.592C254.248 71.1573 253.773 71.5947 253.176 71.904C252.579 72.224 251.917 72.384 251.192 72.384ZM273.397 70H272.309V65.344C272.309 64.3733 272.154 63.6587 271.845 63.2C271.536 62.7413 271.077 62.512 270.469 62.512C269.84 62.512 269.274 62.736 268.773 63.184C268.282 63.632 267.936 64.208 267.733 64.912V70H266.645V65.344C266.645 64.3627 266.496 63.648 266.197 63.2C265.898 62.7413 265.44 62.512 264.821 62.512C264.202 62.512 263.642 62.7307 263.141 63.168C262.64 63.6053 262.288 64.1813 262.085 64.896V70H260.997V61.664H261.989V63.552C262.341 62.9013 262.789 62.4 263.333 62.048C263.888 61.696 264.501 61.52 265.173 61.52C265.866 61.52 266.426 61.7173 266.853 62.112C267.28 62.5067 267.541 63.024 267.637 63.664C268.021 62.96 268.48 62.4267 269.013 62.064C269.557 61.7013 270.17 61.52 270.853 61.52C271.322 61.52 271.717 61.6053 272.037 61.776C272.368 61.9467 272.629 62.192 272.821 62.512C273.024 62.8213 273.168 63.2 273.253 63.648C273.349 64.0853 273.397 64.576 273.397 65.12V70ZM288.1 70H287.012V65.344C287.012 64.3733 286.857 63.6587 286.548 63.2C286.239 62.7413 285.78 62.512 285.172 62.512C284.543 62.512 283.977 62.736 283.476 63.184C282.985 63.632 282.639 64.208 282.436 64.912V70H281.348V65.344C281.348 64.3627 281.199 63.648 280.9 63.2C280.601 62.7413 280.143 62.512 279.524 62.512C278.905 62.512 278.345 62.7307 277.844 63.168C277.343 63.6053 276.991 64.1813 276.788 64.896V70H275.7V61.664H276.692V63.552C277.044 62.9013 277.492 62.4 278.036 62.048C278.591 61.696 279.204 61.52 279.876 61.52C280.569 61.52 281.129 61.7173 281.556 62.112C281.983 62.5067 282.244 63.024 282.34 63.664C282.724 62.96 283.183 62.4267 283.716 62.064C284.26 61.7013 284.873 61.52 285.556 61.52C286.025 61.52 286.42 61.6053 286.74 61.776C287.071 61.9467 287.332 62.192 287.524 62.512C287.727 62.8213 287.871 63.2 287.956 63.648C288.052 64.0853 288.1 64.576 288.1 65.12V70Z" fill="black"/>
<circle cx="350.559" cy="21.5591" r="7.55906" fill="#262626"/>
<path d="M334.696 72.032V69.184H329.368V68.224L335.048 60.864H335.784V68.192H337.192V69.184H335.784V72.032H334.696ZM330.52 68.192H334.808V62.576L330.52 68.192ZM355.413 70H354.325V65.344C354.325 64.3733 354.17 63.6587 353.861 63.2C353.551 62.7413 353.093 62.512 352.485 62.512C351.855 62.512 351.29 62.736 350.789 63.184C350.298 63.632 349.951 64.208 349.749 64.912V70H348.661V65.344C348.661 64.3627 348.511 63.648 348.213 63.2C347.914 62.7413 347.455 62.512 346.837 62.512C346.218 62.512 345.658 62.7307 345.157 63.168C344.655 63.6053 344.303 64.1813 344.101 64.896V70H343.013V61.664H344.005V63.552C344.357 62.9013 344.805 62.4 345.349 62.048C345.903 61.696 346.517 61.52 347.189 61.52C347.882 61.52 348.442 61.7173 348.869 62.112C349.295 62.5067 349.557 63.024 349.653 63.664C350.037 62.96 350.495 62.4267 351.029 62.064C351.573 61.7013 352.186 61.52 352.869 61.52C353.338 61.52 353.733 61.6053 354.053 61.776C354.383 61.9467 354.645 62.192 354.837 62.512C355.039 62.8213 355.183 63.2 355.269 63.648C355.365 64.0853 355.413 64.576 355.413 65.12V70ZM370.116 70H369.028V65.344C369.028 64.3733 368.873 63.6587 368.564 63.2C368.254 62.7413 367.796 62.512 367.188 62.512C366.558 62.512 365.993 62.736 365.492 63.184C365.001 63.632 364.654 64.208 364.452 64.912V70H363.364V65.344C363.364 64.3627 363.214 63.648 362.916 63.2C362.617 62.7413 362.158 62.512 361.54 62.512C360.921 62.512 360.361 62.7307 359.86 63.168C359.358 63.6053 359.006 64.1813 358.804 64.896V70H357.716V61.664H358.708V63.552C359.06 62.9013 359.508 62.4 360.052 62.048C360.606 61.696 361.22 61.52 361.892 61.52C362.585 61.52 363.145 61.7173 363.572 62.112C363.998 62.5067 364.26 63.024 364.356 63.664C364.74 62.96 365.198 62.4267 365.732 62.064C366.276 61.7013 366.889 61.52 367.572 61.52C368.041 61.52 368.436 61.6053 368.756 61.776C369.086 61.9467 369.348 62.192 369.54 62.512C369.742 62.8213 369.886 63.2 369.972 63.648C370.068 64.0853 370.116 64.576 370.116 65.12V70Z" fill="black"/>
<circle cx="432.669" cy="21.6693" r="5.66929" fill="#262626"/>
<path d="M416.488 66.224C416.968 66.2987 417.379 66.4693 417.72 66.736C418.061 67.0027 418.328 67.3387 418.52 67.744C418.712 68.1493 418.808 68.608 418.808 69.12C418.808 69.76 418.653 70.3253 418.344 70.816C418.035 71.3067 417.603 71.6853 417.048 71.952C416.493 72.2187 415.848 72.352 415.112 72.352C414.301 72.352 413.592 72.1867 412.984 71.856C412.376 71.536 411.917 71.088 411.608 70.512L412.36 69.824C412.595 70.2827 412.941 70.6507 413.4 70.928C413.859 71.216 414.429 71.36 415.112 71.36C415.901 71.36 416.525 71.1627 416.984 70.768C417.453 70.384 417.688 69.8293 417.688 69.104C417.688 68.3787 417.443 67.8027 416.952 67.376C416.472 66.9387 415.784 66.72 414.888 66.72H414.488V65.792H414.92C415.741 65.792 416.371 65.6 416.808 65.216C417.245 64.832 417.464 64.3413 417.464 63.744C417.464 63.3067 417.363 62.944 417.16 62.656C416.957 62.368 416.68 62.1493 416.328 62C415.987 61.8507 415.592 61.776 415.144 61.776C414.536 61.776 413.997 61.9147 413.528 62.192C413.069 62.4587 412.723 62.832 412.488 63.312L411.784 62.64C411.965 62.2667 412.227 61.9413 412.568 61.664C412.909 61.3867 413.309 61.1733 413.768 61.024C414.227 60.864 414.717 60.784 415.24 60.784C415.901 60.784 416.483 60.9067 416.984 61.152C417.485 61.3867 417.88 61.7173 418.168 62.144C418.456 62.5707 418.6 63.072 418.6 63.648C418.6 64.0747 418.515 64.4693 418.344 64.832C418.173 65.1947 417.928 65.4987 417.608 65.744C417.299 65.9893 416.925 66.1493 416.488 66.224ZM437.225 70H436.137V65.344C436.137 64.3733 435.982 63.6587 435.673 63.2C435.364 62.7413 434.905 62.512 434.297 62.512C433.668 62.512 433.102 62.736 432.601 63.184C432.11 63.632 431.764 64.208 431.561 64.912V70H430.473V65.344C430.473 64.3627 430.324 63.648 430.025 63.2C429.726 62.7413 429.268 62.512 428.649 62.512C428.03 62.512 427.47 62.7307 426.969 63.168C426.468 63.6053 426.116 64.1813 425.913 64.896V70H424.825V61.664H425.817V63.552C426.169 62.9013 426.617 62.4 427.161 62.048C427.716 61.696 428.329 61.52 429.001 61.52C429.694 61.52 430.254 61.7173 430.681 62.112C431.108 62.5067 431.369 63.024 431.465 63.664C431.849 62.96 432.308 62.4267 432.841 62.064C433.385 61.7013 433.998 61.52 434.681 61.52C435.15 61.52 435.545 61.6053 435.865 61.776C436.196 61.9467 436.457 62.192 436.649 62.512C436.852 62.8213 436.996 63.2 437.081 63.648C437.177 64.0853 437.225 64.576 437.225 65.12V70ZM451.928 70H450.84V65.344C450.84 64.3733 450.685 63.6587 450.376 63.2C450.067 62.7413 449.608 62.512 449 62.512C448.371 62.512 447.805 62.736 447.304 63.184C446.813 63.632 446.467 64.208 446.264 64.912V70H445.176V65.344C445.176 64.3627 445.027 63.648 444.728 63.2C444.429 62.7413 443.971 62.512 443.352 62.512C442.733 62.512 442.173 62.7307 441.672 63.168C441.171 63.6053 440.819 64.1813 440.616 64.896V70H439.528V61.664H440.52V63.552C440.872 62.9013 441.32 62.4 441.864 62.048C442.419 61.696 443.032 61.52 443.704 61.52C444.397 61.52 444.957 61.7173 445.384 62.112C445.811 62.5067 446.072 63.024 446.168 63.664C446.552 62.96 447.011 62.4267 447.544 62.064C448.088 61.7013 448.701 61.52 449.384 61.52C449.853 61.52 450.248 61.6053 450.568 61.776C450.899 61.9467 451.16 62.192 451.352 62.512C451.555 62.8213 451.699 63.2 451.784 63.648C451.88 64.0853 451.928 64.576 451.928 65.12V70Z" fill="black"/>
<circle cx="514.78" cy="21.7795" r="3.77953" fill="#262626"/>
<path d="M493.704 70C493.704 69.6373 493.736 69.2747 493.8 68.912C493.864 68.5387 493.987 68.1707 494.168 67.808C494.349 67.4453 494.616 67.0987 494.968 66.768C495.32 66.4267 495.784 66.1067 496.36 65.808C496.669 65.648 496.989 65.4933 497.32 65.344C497.651 65.184 497.96 65.0133 498.248 64.832C498.547 64.64 498.781 64.4267 498.952 64.192C499.133 63.9467 499.224 63.6587 499.224 63.328C499.224 63.0613 499.144 62.8 498.984 62.544C498.835 62.288 498.6 62.08 498.28 61.92C497.971 61.76 497.581 61.68 497.112 61.68C496.771 61.68 496.461 61.728 496.184 61.824C495.907 61.92 495.661 62.0427 495.448 62.192C495.235 62.3307 495.053 62.4747 494.904 62.624C494.755 62.7627 494.632 62.88 494.536 62.976L493.848 62.224C493.901 62.16 494.019 62.048 494.2 61.888C494.392 61.7173 494.632 61.5413 494.92 61.36C495.219 61.1787 495.565 61.024 495.96 60.896C496.365 60.768 496.808 60.704 497.288 60.704C497.939 60.704 498.493 60.8213 498.952 61.056C499.421 61.28 499.779 61.584 500.024 61.968C500.269 62.352 500.392 62.768 500.392 63.216C500.392 63.6533 500.296 64.032 500.104 64.352C499.923 64.6613 499.683 64.9333 499.384 65.168C499.096 65.392 498.792 65.5893 498.472 65.76C498.163 65.92 497.88 66.0587 497.624 66.176C497.123 66.4107 496.701 66.6453 496.36 66.88C496.019 67.1147 495.747 67.3547 495.544 67.6C495.341 67.8347 495.181 68.0693 495.064 68.304C494.957 68.528 494.883 68.7627 494.84 69.008H500.568V70H493.704ZM519.022 70H517.934V65.344C517.934 64.3733 517.779 63.6587 517.47 63.2C517.161 62.7413 516.702 62.512 516.094 62.512C515.465 62.512 514.899 62.736 514.398 63.184C513.907 63.632 513.561 64.208 513.358 64.912V70H512.27V65.344C512.27 64.3627 512.121 63.648 511.822 63.2C511.523 62.7413 511.065 62.512 510.446 62.512C509.827 62.512 509.267 62.7307 508.766 63.168C508.265 63.6053 507.913 64.1813 507.71 64.896V70H506.622V61.664H507.614V63.552C507.966 62.9013 508.414 62.4 508.958 62.048C509.513 61.696 510.126 61.52 510.798 61.52C511.491 61.52 512.051 61.7173 512.478 62.112C512.905 62.5067 513.166 63.024 513.262 63.664C513.646 62.96 514.105 62.4267 514.638 62.064C515.182 61.7013 515.795 61.52 516.478 61.52C516.947 61.52 517.342 61.6053 517.662 61.776C517.993 61.9467 518.254 62.192 518.446 62.512C518.649 62.8213 518.793 63.2 518.878 63.648C518.974 64.0853 519.022 64.576 519.022 65.12V70ZM533.725 70H532.637V65.344C532.637 64.3733 532.482 63.6587 532.173 63.2C531.864 62.7413 531.405 62.512 530.797 62.512C530.168 62.512 529.602 62.736 529.101 63.184C528.61 63.632 528.264 64.208 528.061 64.912V70H526.973V65.344C526.973 64.3627 526.824 63.648 526.525 63.2C526.226 62.7413 525.768 62.512 525.149 62.512C524.53 62.512 523.97 62.7307 523.469 63.168C522.968 63.6053 522.616 64.1813 522.413 64.896V70H521.325V61.664H522.317V63.552C522.669 62.9013 523.117 62.4 523.661 62.048C524.216 61.696 524.829 61.52 525.501 61.52C526.194 61.52 526.754 61.7173 527.181 62.112C527.608 62.5067 527.869 63.024 527.965 63.664C528.349 62.96 528.808 62.4267 529.341 62.064C529.885 61.7013 530.498 61.52 531.181 61.52C531.65 61.52 532.045 61.6053 532.365 61.776C532.696 61.9467 532.957 62.192 533.149 62.512C533.352 62.8213 533.496 63.2 533.581 63.648C533.677 64.0853 533.725 64.576 533.725 65.12V70Z" fill="black"/>
<circle cx="596.89" cy="21.8898" r="1.88976" fill="#262626"/>
<path d="M581.496 69.008V70H576.072V69.008H578.344V62.16C578.259 62.288 578.115 62.4267 577.912 62.576C577.709 62.7253 577.475 62.864 577.208 62.992C576.952 63.12 576.696 63.2267 576.44 63.312C576.184 63.3973 575.949 63.44 575.736 63.44V62.384C575.981 62.384 576.248 62.3147 576.536 62.176C576.824 62.0373 577.101 61.8773 577.368 61.696C577.635 61.5147 577.859 61.344 578.04 61.184C578.221 61.024 578.323 60.9173 578.344 60.864H579.464V69.008H581.496ZM599.522 70H598.434V65.344C598.434 64.3733 598.279 63.6587 597.97 63.2C597.661 62.7413 597.202 62.512 596.594 62.512C595.965 62.512 595.399 62.736 594.898 63.184C594.407 63.632 594.061 64.208 593.858 64.912V70H592.77V65.344C592.77 64.3627 592.621 63.648 592.322 63.2C592.023 62.7413 591.565 62.512 590.946 62.512C590.327 62.512 589.767 62.7307 589.266 63.168C588.765 63.6053 588.413 64.1813 588.21 64.896V70H587.122V61.664H588.114V63.552C588.466 62.9013 588.914 62.4 589.458 62.048C590.013 61.696 590.626 61.52 591.298 61.52C591.991 61.52 592.551 61.7173 592.978 62.112C593.405 62.5067 593.666 63.024 593.762 63.664C594.146 62.96 594.605 62.4267 595.138 62.064C595.682 61.7013 596.295 61.52 596.978 61.52C597.447 61.52 597.842 61.6053 598.162 61.776C598.493 61.9467 598.754 62.192 598.946 62.512C599.149 62.8213 599.293 63.2 599.378 63.648C599.474 64.0853 599.522 64.576 599.522 65.12V70ZM614.225 70H613.137V65.344C613.137 64.3733 612.982 63.6587 612.673 63.2C612.364 62.7413 611.905 62.512 611.297 62.512C610.668 62.512 610.102 62.736 609.601 63.184C609.11 63.632 608.764 64.208 608.561 64.912V70H607.473V65.344C607.473 64.3627 607.324 63.648 607.025 63.2C606.726 62.7413 606.268 62.512 605.649 62.512C605.03 62.512 604.47 62.7307 603.969 63.168C603.468 63.6053 603.116 64.1813 602.913 64.896V70H601.825V61.664H602.817V63.552C603.169 62.9013 603.617 62.4 604.161 62.048C604.716 61.696 605.329 61.52 606.001 61.52C606.694 61.52 607.254 61.7173 607.681 62.112C608.108 62.5067 608.369 63.024 608.465 63.664C608.849 62.96 609.308 62.4267 609.841 62.064C610.385 61.7013 610.998 61.52 611.681 61.52C612.15 61.52 612.545 61.6053 612.865 61.776C613.196 61.9467 613.457 62.192 613.649 62.512C613.852 62.8213 613.996 63.2 614.081 63.648C614.177 64.0853 614.225 64.576 614.225 65.12V70Z" fill="black"/>
</svg>
