<svg width="44" height="44" viewBox="0 0 44 44" fill="none" xmlns="http://www.w3.org/2000/svg">
<circle cx="22" cy="22" r="20" fill="#262626"/>
<path fill-rule="evenodd" clip-rule="evenodd" d="M20.6943 23.0863L19.9941 23.7865L18.7128 20.1736L17.2914 23.5274C17.1934 23.7585 16.9693 23.9125 16.7173 23.9125H13.9726C13.7205 23.9125 13.5245 23.7095 13.5245 23.4644C13.5245 23.2193 13.7205 23.0163 13.9726 23.0163H16.5422L18.1596 19.1933C18.3767 18.6682 19.1259 18.6892 19.3219 19.2213L20.6943 23.0863Z" fill="white" stroke="white" stroke-width="0.5"/>
<path fill-rule="evenodd" clip-rule="evenodd" d="M21.0792 24.1855L20.3791 24.8857L20.3721 24.8647L21.0722 24.1645L21.0792 24.1855Z" fill="white"/>
<path fill-rule="evenodd" clip-rule="evenodd" d="M24.4681 20.7967L22.8507 22.4141L22.8717 22.3581L24.4541 20.7757C24.4541 20.7757 24.4681 20.7897 24.4681 20.7967Z" fill="white"/>
<path fill-rule="evenodd" clip-rule="evenodd" d="M30.4686 24.5776C30.4686 24.8297 30.2726 25.0257 30.0205 25.0257H25.6934L24.083 22.2461L24.7412 21.5809L26.2325 24.1365H30.0205C30.2726 24.1365 30.4686 24.3326 30.4686 24.5776Z" fill="white" stroke="white" stroke-width="0.5"/>
<path d="M35.7899 17.2538C35.4329 15.6714 34.6697 14.4601 34.0045 13.6479C33.7664 13.3538 33.5354 13.1088 33.3323 12.9197L32.7092 13.5499C32.8842 13.7179 33.0943 13.942 33.3183 14.2151C33.9205 14.9502 34.5996 16.0425 34.9217 17.4569C35.5519 20.2436 34.8237 24.4936 28.8232 30.039C26.7927 31.9015 24.4681 33.4559 22.0105 34.7162C19.7699 33.5679 17.6344 32.1676 15.7369 30.5151L15.1138 31.1453C17.1373 32.9307 19.4128 34.4081 21.8074 35.6194L22.0105 35.7174L22.2135 35.6194C24.8042 34.3031 27.2688 32.6717 29.4254 30.6902C35.5729 25.0188 36.5181 20.4676 35.7899 17.2538Z" fill="white" stroke="white" stroke-width="0.5"/>
<path d="M25.2593 19.9705L24.4541 20.7757L22.8717 22.3581L21.0723 24.1645L19.3289 25.908L19.3429 25.922L21.0793 24.1855L22.8507 22.4141L24.4681 20.7967L25.2733 19.9915L25.2593 19.9705Z" fill="white"/>
<path d="M34.3686 10.154C34.2636 10.049 34.1305 10 33.9975 10C33.8645 10 33.7314 10.049 33.6264 10.154L31.897 11.8835C29.3343 10.4831 27.1078 10.7352 25.3783 11.5474C23.7119 12.3386 22.5426 13.6339 21.9965 14.3481C21.4434 13.6339 20.2741 12.3316 18.6077 11.5404C16.6962 10.6302 14.1685 10.4131 11.2558 12.3876V12.4016H11.2418L11.2208 12.4226C11.2208 12.4226 11.1718 12.4576 11.1368 12.4856C11.0738 12.5416 10.9757 12.6187 10.8637 12.7237C10.6327 12.9337 10.3176 13.2418 9.9885 13.6479C9.32333 14.4601 8.56014 15.6714 8.20305 17.2608C8.07002 17.842 8 18.4651 8 19.1303C8 21.987 9.39335 25.6349 13.8325 29.955L11.2978 32.4896C11.0948 32.6997 11.0948 33.0288 11.2978 33.2318C11.4029 33.3368 11.5359 33.3929 11.6689 33.3929C11.802 33.3929 11.935 33.3368 12.04 33.2318L14.5886 30.6832L15.2188 30.053L19.3498 25.922L19.3358 25.908L21.0793 24.1645L22.8787 22.3581L24.4611 20.7757L25.2663 19.9705L25.2803 19.9915L32.8212 12.4506L34.3756 10.8962C34.5787 10.6932 34.5787 10.3641 34.3756 10.154H34.3686ZM19.994 23.7865L14.4486 29.3318C9.11328 24.1295 8.46912 20.1245 9.07127 17.4569C9.38635 16.0355 10.0655 14.9502 10.6677 14.2151C10.9687 13.844 11.2488 13.5709 11.4519 13.3818C11.5569 13.2908 11.6339 13.2208 11.6899 13.1788C11.7179 13.1578 11.7389 13.1438 11.7529 13.1298C11.7599 13.1298 11.7599 13.1298 11.7669 13.1298C14.3926 11.3443 16.5841 11.5754 18.2226 12.3526C19.0558 12.7447 19.7629 13.2908 20.3021 13.816C20.8482 14.3341 21.2403 14.8242 21.4434 15.1113C21.5694 15.2863 21.7584 15.3984 21.9825 15.3984C22.2066 15.3984 22.4026 15.2863 22.5286 15.1183H22.5356C22.9487 14.5371 24.083 13.1578 25.7564 12.3666C26.4846 12.0235 27.3248 11.7854 28.2631 11.7854C29.2013 11.7854 30.1535 12.0025 31.2318 12.5486L19.987 23.7935L19.994 23.7865Z" fill="white" stroke="white" stroke-width="0.5"/>
</svg>
